<?xml version="1.0" encoding="UTF-8"?>
<svg width="128" height="128" viewBox="0 0 128 128" xmlns="http://www.w3.org/2000/svg">
    <rect width="128" height="128" rx="20" fill="#4CAF50"/>
    <path d="M64 24C41.92 24 24 41.92 24 64C24 86.08 41.92 104 64 104C86.08 104 104 86.08 104 64C104 41.92 86.08 24 64 24ZM64 96C47.36 96 34 82.64 34 66C34 49.36 47.36 36 64 36C80.64 36 94 49.36 94 66C94 82.64 80.64 96 64 96Z" fill="white"/>
    <path d="M64 44C58.48 44 54 48.48 54 54C54 59.52 58.48 64 64 64C69.52 64 74 59.52 74 54C74 48.48 69.52 44 64 44Z" fill="white"/>
    <path d="M64 68C56.28 68 50 74.28 50 82H78C78 74.28 71.72 68 64 68Z" fill="white"/>
</svg> 